<svg width="16px" height="16px" viewBox="0 0 16 16" version="1.1" xmlns="http://www.w3.org/2000/svg" xmlns:xlink="http://www.w3.org/1999/xlink">
    <!-- Generator: Sketch 43.2 (39069) - http://www.bohemiancoding.com/sketch -->
    <desc>Created with Sketch.</desc>
    <defs></defs>
    <g id="Link-Embed" stroke="none" stroke-width="1" fill="none" fill-rule="evenodd">
        <g id="Article" transform="translate(-502.000000, -1101.000000)" fill-rule="nonzero" fill="#A6A4A8">
            <g transform="translate(438.000000, 20.000000)" id="Input">
                <g transform="translate(46.000000, 1065.000000)">
                    <path d="M32.758067,23.2491662 L29.754489,26.251764 C28.0967534,27.9104798 25.4074842,27.9104798 23.7494685,26.251764 C23.4883031,25.9913337 23.2839918,25.6978901 23.1045719,25.3952742 L24.5001617,23.9997894 C24.5665034,23.9328876 24.6484239,23.894553 24.7267035,23.8493917 C24.8231877,24.1790343 24.9916149,24.4911026 25.2508549,24.7503776 C26.0787425,25.5789303 27.4258802,25.577775 28.2532777,24.7503776 L31.2559104,21.7478498 C32.0844281,20.9194021 32.0844281,19.5725795 31.2559104,18.7447619 C30.428478,17.9169444 29.0816903,17.9169444 28.2532777,18.7447619 L27.185545,19.8136499 C26.3190777,19.4762703 25.3855687,19.3855626 24.4768109,19.518736 L26.7520663,17.2435506 C28.4107821,15.5851498 31.0993512,15.5851498 32.758067,17.2435506 C34.4159777,18.9018813 34.4159777,21.5908705 32.758067,23.2491662 Z M24.8179364,28.186454 L23.7494335,29.255342 C22.921616,30.0827394 21.5744082,30.0827394 20.7464507,29.255342 C19.9185631,28.4267892 19.9185631,27.0799666 20.7464507,26.251764 L23.7494335,23.2491662 C24.5779162,22.4207885 25.9242137,22.4207885 26.7520313,23.2491662 C27.0106761,23.5078811 27.1792784,23.8198793 27.2766728,24.1491018 C27.3554076,24.1033453 27.4363128,24.066166 27.5026195,23.9997544 L28.8981043,22.6048297 C28.7198396,22.3010235 28.5144781,22.0086302 28.2532076,21.7479198 C26.5956121,20.0895191 23.9060978,20.0895191 22.247697,21.7479198 L19.2451693,24.7505526 C17.5869436,26.4094435 17.5869436,29.0976624 19.2451693,30.7564133 C20.9035701,32.4142889 23.5924542,32.4142889 25.2508199,30.7564133 L27.5266705,28.4807378 C26.6174225,28.6146814 25.6836684,28.5232034 24.8179364,28.186454 Z" id="Shape"></path>
                </g>
            </g>
        </g>
    </g>
</svg>