<svg width="14" height="14" xmlns="http://www.w3.org/2000/svg"><path d="M12.913 6.344L10.285 8.97a3.714 3.714 0 0 1-5.255 0 3.712 3.712 0 0 1-.563-.75L5.687 7c.06-.059.13-.092.2-.131.083.288.231.56.458.787a1.86 1.86 0 0 0 2.626 0L11.6 5.03a1.86 1.86 0 0 0 0-2.627 1.86 1.86 0 0 0-2.628 0l-.933.935a4.662 4.662 0 0 0-2.372-.258l1.992-1.99a3.716 3.716 0 0 1 5.255 5.254zm-6.947 4.319l-.936.936a1.861 1.861 0 0 1-2.627 0 1.861 1.861 0 0 1 0-2.629L5.03 6.343a1.86 1.86 0 0 1 2.628 0c.227.226.374.499.46.787.068-.04.14-.072.197-.13l1.22-1.22a3.651 3.651 0 0 0-.564-.75 3.715 3.715 0 0 0-5.254 0L1.089 7.655a3.716 3.716 0 0 0 5.256 5.255l1.991-1.991c-.8.121-1.617.032-2.371-.258z"/></svg>
